<?xml version="1.0" encoding="UTF-8"?>
<svg width="20px" height="20px" viewBox="0 0 20 20" version="1.1" xmlns="http://www.w3.org/2000/svg" xmlns:xlink="http://www.w3.org/1999/xlink">
    <!-- Generator: Sketch 59.1 (86144) - https://sketch.com -->
    <title>icon - menu@1x</title>
    <desc>Created with Sketch.</desc>
    <defs>
        <path d="M18.3333333,10 C18.3333333,10.5 18,10.8333333 17.5,10.8333333 L2.5,10.8333333 C2,10.8333333 1.66666667,10.5 1.66666667,10 C1.66666667,9.5 2,9.16666667 2.5,9.16666667 L17.5,9.16666667 C18,9.16666667 18.3333333,9.5 18.3333333,10 Z M2.5,5.83333333 L17.5,5.83333333 C18,5.83333333 18.3333333,5.5 18.3333333,5 C18.3333333,4.5 18,4.16666667 17.5,4.16666667 L2.5,4.16666667 C2,4.16666667 1.66666667,4.5 1.66666667,5 C1.66666667,5.5 2,5.83333333 2.5,5.83333333 Z M17.5,14.1666667 L2.5,14.1666667 C2,14.1666667 1.66666667,14.5 1.66666667,15 C1.66666667,15.5 2,15.8333333 2.5,15.8333333 L17.5,15.8333333 C18,15.8333333 18.3333333,15.5 18.3333333,15 C18.3333333,14.5 18,14.1666667 17.5,14.1666667 Z" id="path-1"></path>
    </defs>
    <g id="Mobile-(320-720px)" stroke="none" stroke-width="1" fill="none" fill-rule="evenodd">
        <g id="Mobile-(320-720px)---Home-Page-and-Weather-Widget" transform="translate(-280.000000, -16.000000)">
            <g id="navbar">
                <g id="icon---menu" transform="translate(276.000000, 12.000000)">
                    <g id="icon-/-menu-2" transform="translate(4.000000, 4.000000)">
                        <g id="icon-/-menu">
                            <mask id="mask-2" fill="white">
                                <use xlink:href="#path-1"></use>
                            </mask>
                            <use id="Mask" fill="#FF7E00" fill-rule="nonzero" xlink:href="#path-1"></use>
                        </g>
                    </g>
                </g>
            </g>
        </g>
    </g>
</svg>