<?xml version="1.0" encoding="UTF-8"?>
<svg width="24px" height="24px" viewBox="0 0 24 24" version="1.1" xmlns="http://www.w3.org/2000/svg" xmlns:xlink="http://www.w3.org/1999/xlink">
    <!-- Generator: Sketch 59.1 (86144) - https://sketch.com -->
    <title>icon-gitlab copy@2x</title>
    <desc>Created with Sketch.</desc>
    <g id="Page-1" stroke="none" stroke-width="1" fill="none" fill-rule="evenodd">
        <g id="Web-(Min1024px)---Loading-Weather-Widget" transform="translate(-628.000000, -4901.000000)" fill="#6F6F6F">
            <g id="1.0-Home-Page---Footer" transform="translate(0.000000, 4792.000000)">
                <g id="Social-Icons" transform="translate(540.000000, 109.000000)">
                    <g id="Icon-3" transform="translate(88.000000, 0.000000)">
                        <g id="Github_black">
                            <g id="Social_icons_black">
                                <g id="Github" fill-rule="nonzero">
                                    <path d="M12.0216198,0.0899745726 C5.40733884,0.0899745726 0.0438347108,5.54392654 0.0438347108,12.2722493 C0.0438347108,17.6547864 3.47583471,22.2212986 8.2349752,23.8321663 C8.83358676,23.9449371 9.05335536,23.5678912 9.05335536,23.2461211 C9.05335536,22.9556203 9.04224792,21.9959587 9.03709092,20.9779953 C5.70485952,21.7149395 5.001719,19.5406212 5.001719,19.5406212 C4.45685952,18.132499 3.67180165,17.7580756 3.67180165,17.7580756 C2.58505785,17.0019665 3.75371901,17.0175002 3.75371901,17.0175002 C4.95649588,17.1032383 5.5898182,18.2729077 5.5898182,18.2729077 C6.65811572,20.1353411 8.39186776,19.5969058 9.07537192,19.285626 C9.18287604,18.4984494 9.49328924,17.9606193 9.83583472,17.6566021 C7.17540496,17.3485501 4.37871076,16.3039575 4.37871076,11.6359717 C4.37871076,10.3059216 4.84661156,9.21916593 5.61282644,8.36602137 C5.4884628,8.0589781 5.07847932,6.82011295 5.72885952,5.142067 C5.72885952,5.142067 6.73467768,4.81464834 9.02360332,6.39081726 C9.97904132,6.12089353 11.0037025,5.9855282 12.0216198,5.98088823 C13.0395372,5.9855282 14.0649917,6.12089353 15.0222149,6.39081726 C17.3083636,4.81464834 18.3127934,5.142067 18.3127934,5.142067 C18.9647603,6.82011295 18.5545785,8.0589781 18.4302149,8.36602137 C19.1982149,9.21916593 19.6629422,10.3059216 19.6629422,11.6359717 C19.6629422,16.3150529 16.8608926,17.3453223 14.193719,17.6469187 C14.6233388,18.0249733 15.0061488,18.7663557 15.0061488,19.9029404 C15.0061488,21.5327712 14.9922645,22.8446651 14.9922645,23.2461211 C14.9922645,23.570312 15.2078678,23.9501822 15.8150083,23.8305524 C20.5715702,22.2178691 23.9992066,17.6529708 23.9992066,12.2722493 C23.9992066,5.54392654 18.6364959,0.0899745726 12.0216198,0.0899745726" id="Fill-51"></path>
                                    <path d="M4.58042976,17.5811526 C4.5540496,17.6418753 4.46042976,17.6598299 4.37514048,17.6182721 C4.28826448,17.57853 4.23947108,17.4960197 4.26763636,17.4352969 C4.29342148,17.3729603 4.38723968,17.3558127 4.47391736,17.3971687 C4.56099172,17.4371125 4.61057852,17.5204298 4.58042976,17.5811526" id="Fill-52"></path>
                                    <path d="M5.06558676,18.1314903 C5.0084628,18.185354 4.8967934,18.1603387 4.8210248,18.0752057 C4.74267768,17.9902746 4.728,17.8766968 4.78591736,17.8220262 C4.84482644,17.7681625 4.95312396,17.7933796 5.03166944,17.8783107 C5.11001652,17.9642506 5.12528924,18.0770214 5.06558676,18.1314903" id="Fill-53"></path>
                                    <path d="M5.53785124,18.8331306 C5.4644628,18.8849769 5.3444628,18.8363584 5.270281,18.7280258 C5.19689256,18.6196931 5.19689256,18.4897747 5.27186776,18.4377266 C5.34624792,18.3856786 5.4644628,18.4324815 5.53963636,18.5400072 C5.61282644,18.6499536 5.61282644,18.7800738 5.53785124,18.8331306" id="Fill-54"></path>
                                    <path d="M6.18485952,19.5109659 C6.1192066,19.5845998 5.97937192,19.5648296 5.8770248,19.4643648 C5.77229752,19.366119 5.74314048,19.2267189 5.80899172,19.153085 C5.875438,19.0792494 6.01606612,19.1000282 6.1192066,19.1996862 C6.22314048,19.2977302 6.25487604,19.438139 6.18485952,19.5109659" id="Fill-55"></path>
                                    <path d="M7.07742148,19.9045543 C7.0484628,19.9999757 6.91378512,20.0433491 6.77811572,20.0028 C6.64264464,19.9610405 6.55398348,19.8492784 6.58135536,19.7528483 C6.60952068,19.6568216 6.7447934,19.6116325 6.88145456,19.655006 C7.01672728,19.6965637 7.10558676,19.8075189 7.07742148,19.9045543" id="Fill-56"></path>
                                    <path d="M8.05765288,19.977583 C8.0610248,20.0780478 7.94598348,20.1613651 7.80357024,20.162979 C7.66036364,20.1664085 7.54452892,20.0851086 7.54294216,19.9862576 C7.54294216,19.8847841 7.65540496,19.8022737 7.79861156,19.7998529 C7.9410248,19.7970286 8.05765288,19.8777233 8.05765288,19.977583" id="Fill-57"></path>
                                    <path d="M8.96985124,19.8196231 C8.98690908,19.9176672 8.88793388,20.0183338 8.7465124,20.044963 C8.60747108,20.0709871 8.4787438,20.010466 8.46109092,19.9132289 C8.44383472,19.8127641 8.54459504,19.7120974 8.683438,19.6860734 C8.82505784,19.6610581 8.95180164,19.7199652 8.96985124,19.8196231" id="Fill-58"></path>
                                </g>
                            </g>
                        </g>
                    </g>
                </g>
            </g>
        </g>
    </g>
</svg>