<?xml version="1.0" encoding="UTF-8"?>
<svg width="32px" height="32px" viewBox="0 0 32 32" version="1.1" xmlns="http://www.w3.org/2000/svg" xmlns:xlink="http://www.w3.org/1999/xlink">
    <!-- Generator: Sketch 59.1 (86144) - https://sketch.com -->
    <title>icon - arrow-right@1x</title>
    <desc>Created with Sketch.</desc>
    <defs>
        <path d="M16.942809,5.72385763 L26.2761424,15.057191 L26.2944951,15.0759058 C26.3141488,15.0963428 26.3331569,15.1174053 26.3514866,15.1390602 L26.2761424,15.057191 C26.3150816,15.0961302 26.3511089,15.1368787 26.3842241,15.1791659 C26.3999382,15.1994001 26.4147765,15.2195238 26.4290518,15.2400683 C26.4408811,15.2568948 26.4520866,15.2738386 26.4628645,15.2909742 C26.5546662,15.4369722 26.6191981,15.6026852 26.6486438,15.7802497 C26.6507241,15.7934336 26.6526382,15.8061053 26.6543695,15.8187973 C26.6585191,15.8485812 26.6616418,15.8793331 26.6637021,15.9103756 C26.6647179,15.9260928 26.6654777,15.9414682 26.6659726,15.9568505 C26.6664336,15.9709512 26.6666667,15.9854484 26.6666667,16 L26.6659726,16.0431495 C26.6654777,16.0585318 26.6647179,16.0739072 26.6636934,16.0892682 L26.6666667,16 C26.6666667,16.0627222 26.6623357,16.1244329 26.6539566,16.1848493 C26.6523766,16.1955359 26.6508115,16.2058715 26.6491248,16.216191 C26.6364778,16.2945546 26.6167558,16.3710151 26.5907717,16.4445173 C26.586948,16.455212 26.5828173,16.466453 26.5785303,16.4776479 C26.546596,16.5608564 26.5067306,16.6397364 26.4597851,16.7136792 C26.4508927,16.7278998 26.4417301,16.7417478 26.4322819,16.7554584 C26.4181766,16.7757399 26.403643,16.795637 26.3885826,16.815106 C26.3741537,16.8338716 26.3590427,16.8523504 26.3433612,16.8705067 C26.3267666,16.8896702 26.3100428,16.9079878 26.2928262,16.9258265 C26.2876492,16.931198 26.2819279,16.9370235 26.2761424,16.942809 L16.942809,26.2761424 C16.42211,26.7968414 15.57789,26.7968414 15.057191,26.2761424 C14.5364919,25.7554433 14.5364919,24.9112233 15.057191,24.3905243 L22.1133333,17.3333333 L6.66666667,17.3333333 C5.930287,17.3333333 5.33333333,16.7363797 5.33333333,16 C5.33333333,15.2636203 5.930287,14.6666667 6.66666667,14.6666667 L22.1143333,14.6663333 L15.057191,7.60947571 C14.5364919,7.08877665 14.5364919,6.24455668 15.057191,5.72385763 C15.57789,5.20315857 16.42211,5.20315857 16.942809,5.72385763 Z" id="path-1"></path>
    </defs>
    <g id="Page-1" stroke="none" stroke-width="1" fill="none" fill-rule="evenodd">
        <g id="Web-(Min1024px)---Loading-Weather-Widget" transform="translate(-1155.000000, -3492.000000)">
            <g id="1.0-Home-Page---Testimonials" transform="translate(0.000000, 3320.000000)">
                <g id="arrow-right" transform="translate(1147.000000, 164.000000)">
                    <g id="Group-7" transform="translate(8.000000, 8.000000)">
                        <g id="icon-/-arrow-right">
                            <mask id="mask-2" fill="white">
                                <use xlink:href="#path-1"></use>
                            </mask>
                            <use id="Mask" fill-opacity="0.6" fill="#191919" fill-rule="nonzero" xlink:href="#path-1"></use>
                        </g>
                    </g>
                </g>
            </g>
        </g>
    </g>
</svg>