<?xml version="1.0" encoding="UTF-8"?>
<svg width="16px" height="16px" viewBox="0 0 16 16" version="1.1" xmlns="http://www.w3.org/2000/svg" xmlns:xlink="http://www.w3.org/1999/xlink">
    <!-- Generator: Sketch 59.1 (86144) - https://sketch.com -->
    <title>icon - log in</title>
    <desc>Created with Sketch.</desc>
    <defs>
        <path d="M14.6666667,2.66666667 L14.6666667,13.3333333 C14.6666667,14.4666667 13.8,15.3333333 12.6666667,15.3333333 L9.33333333,15.3333333 C8.93333333,15.3333333 8.66666667,15.0666667 8.66666667,14.6666667 C8.66666667,14.2666667 8.93333333,14 9.33333333,14 L12.6666667,14 C13.0666667,14 13.3333333,13.7333333 13.3333333,13.3333333 L13.3333333,2.66666667 C13.3333333,2.26666667 13.0666667,2 12.6666667,2 L9.33333333,2 C8.93333333,2 8.66666667,1.73333333 8.66666667,1.33333333 C8.66666667,0.933333333 8.93333333,0.666666667 9.33333333,0.666666667 L12.6666667,0.666666667 C13.8,0.666666667 14.6666667,1.53333333 14.6666667,2.66666667 Z M10.6,8.26666667 C10.6666667,8.13333333 10.6666667,7.93333333 10.6,7.73333333 C10.5333333,7.66666667 10.5333333,7.6 10.4666667,7.53333333 L7.8,4.86666667 C7.53333333,4.6 7.13333333,4.6 6.86666667,4.86666667 C6.6,5.13333333 6.6,5.53333333 6.86666667,5.8 L8.4,7.33333333 L2,7.33333333 C1.6,7.33333333 1.33333333,7.6 1.33333333,8 C1.33333333,8.4 1.6,8.66666667 2,8.66666667 L8.4,8.66666667 L6.86666667,10.2 C6.6,10.4666667 6.6,10.8666667 6.86666667,11.1333333 C7,11.2666667 7.2,11.3333333 7.33333333,11.3333333 C7.46666667,11.3333333 7.66666667,11.2666667 7.8,11.1333333 L10.4666667,8.46666667 C10.5333333,8.4 10.6,8.33333333 10.6,8.26666667 Z" id="path-1"></path>
    </defs>
    <g id="Page-1" stroke="none" stroke-width="1" fill="none" fill-rule="evenodd">
        <g id="Web-(Min1024px)---Loading-Weather-Widget" transform="translate(-1056.000000, -22.000000)">
            <g id="Hero-Section---EN">
                <g id="Group---Navbar">
                    <g id="log-in" transform="translate(1040.000000, 12.000000)">
                        <g id="Group---icon-w/-text" transform="translate(16.000000, 8.000000)">
                            <g id="icon-/-unlock-2" transform="translate(0.000000, 2.000000)">
                                <g id="icon-/-log-in">
                                    <mask id="mask-2" fill="white">
                                        <use xlink:href="#path-1"></use>
                                    </mask>
                                    <use id="Mask" fill="#FF7E00" fill-rule="nonzero" xlink:href="#path-1"></use>
                                </g>
                            </g>
                        </g>
                    </g>
                </g>
            </g>
        </g>
    </g>
</svg>