<?xml version="1.0" encoding="UTF-8"?>
<svg width="32px" height="32px" viewBox="0 0 32 32" version="1.1" xmlns="http://www.w3.org/2000/svg" xmlns:xlink="http://www.w3.org/1999/xlink">
    <!-- Generator: Sketch 59.1 (86144) - https://sketch.com -->
    <title>icon - star@1x</title>
    <desc>Created with Sketch.</desc>
    <defs>
        <path d="M30.6168365,11.8829112 C30.4839562,11.3504404 30.0853152,11.084205 29.5537939,10.9510873 L21.0494526,9.75302797 L17.195923,2.03220127 C16.797282,1.10037736 15.202718,1.10037736 14.804077,2.03220127 L10.9505474,9.61991026 L2.57908645,10.9510873 C2.04756512,10.9510873 1.64892412,11.3504404 1.38316346,11.8829112 C1.25028313,12.415382 1.38316346,12.9478528 1.78180445,13.2140882 L7.89429974,19.2043848 L6.43261608,27.7239177 C6.29973575,28.2563885 6.56549641,28.7888593 6.96413741,29.0550947 C7.36277841,29.3213301 7.89429974,29.4544478 8.42582106,29.1882124 L16,25.1946814 L23.5741789,29.1882124 C23.8399396,29.1882124 23.9728199,29.1882124 24.2385806,29.1882124 C24.5043413,29.1882124 24.7701019,29.0550947 25.0358626,28.921977 C25.4345036,28.6557416 25.7002643,28.1232708 25.5673839,27.5908 L24.1057003,19.0712671 L30.2181955,13.0809705 C30.6168365,12.8147351 30.7497169,12.2822643 30.6168365,11.8829112 Z M21.7138543,17.7400901 C21.4480936,18.1394432 21.3152133,18.5387963 21.3152133,18.9381494 L22.3782559,25.4609168 L16.5315213,22.3992096 C16.1328803,22.1329742 15.7342393,22.1329742 15.3355983,22.3992096 L9.48886372,25.4609168 L10.6847867,18.9381494 C10.6847867,18.5387963 10.5519064,18.1394432 10.2861457,17.7400901 L5.50245376,13.2140882 L12.01359,12.2822643 C12.412231,12.2822643 12.810872,11.8829112 13.0766327,11.6166758 L16,5.62637921 L18.9233673,11.4835581 C19.0562476,11.8829112 19.4548886,12.1491466 19.98641,12.1491466 L26.4975462,13.0809705 L21.7138543,17.7400901 Z" id="path-1"></path>
    </defs>
    <g id="Page-1" stroke="none" stroke-width="1" fill="none" fill-rule="evenodd">
        <g id="Web-(Min1024px)---Loading-Weather-Widget" transform="translate(-877.000000, -4068.000000)">
            <g id="1.0-Home-Page---3-Features-with-short-desc." transform="translate(0.000000, 3820.000000)">
                <g id="feature-breakdown" transform="translate(85.000000, 208.000000)">
                    <g id="customer-rating" transform="translate(760.000000, 0.000000)">
                        <g id="Group-5" transform="translate(32.000000, 40.000000)">
                            <g id="icon-/-star">
                                <mask id="mask-2" fill="white">
                                    <use xlink:href="#path-1"></use>
                                </mask>
                                <use id="Mask" fill="#FF7E00" fill-rule="nonzero" xlink:href="#path-1"></use>
                            </g>
                        </g>
                    </g>
                </g>
            </g>
        </g>
    </g>
</svg>