<?xml version="1.0" encoding="UTF-8"?>
<svg width="32px" height="32px" viewBox="0 0 32 32" version="1.1" xmlns="http://www.w3.org/2000/svg" xmlns:xlink="http://www.w3.org/1999/xlink">
    <!-- Generator: Sketch 59.1 (86144) - https://sketch.com -->
    <title>icon - left arrow@1x</title>
    <desc>Created with Sketch.</desc>
    <defs>
        <path d="M16.942809,5.72385763 C17.4635081,6.24455668 17.4635081,7.08877665 16.942809,7.60947571 L9.88433333,14.6663333 L25.3333333,14.6666667 C26.069713,14.6666667 26.6666667,15.2636203 26.6666667,16 C26.6666667,16.7363797 26.069713,17.3333333 25.3333333,17.3333333 L9.88533333,17.3333333 L16.942809,24.3905243 C17.4635081,24.9112233 17.4635081,25.7554433 16.942809,26.2761424 C16.42211,26.7968414 15.57789,26.7968414 15.057191,26.2761424 L5.72385763,16.942809 L5.70523083,16.9238091 C5.68506972,16.9028321 5.66558856,16.8811967 5.64682279,16.8589384 L5.72385763,16.942809 C5.68555333,16.9045047 5.65006682,16.8644497 5.61739809,16.8229015 C5.56385818,16.7546765 5.51645416,16.6805399 5.47661136,16.6019228 C5.46687009,16.5826533 5.4600834,16.5684643 5.45356201,16.5541838 C5.44239699,16.5297108 5.43179058,16.5045308 5.42194877,16.4789711 C5.41630617,16.4641985 5.41101392,16.4496548 5.40598296,16.435041 C5.39700392,16.4092383 5.38870374,16.382516 5.3812356,16.3554485 C5.37611174,16.3364508 5.3713353,16.3174841 5.36698139,16.2984404 C5.36178491,16.2762216 5.35730564,16.2540305 5.35338465,16.2316473 C5.34939771,16.2083732 5.34584204,16.1843518 5.34294254,16.1602665 C5.34066777,16.1418512 5.33888601,16.123852 5.33746571,16.1057512 C5.33532274,16.0782633 5.33397745,16.0501769 5.33351501,16.0220788 C5.33339341,16.0147606 5.33333333,16.0073873 5.33333333,16 L5.33349887,15.9789248 C5.3339508,15.9501573 5.33532812,15.9214017 5.33763083,15.8927064 L5.33333333,16 C5.33333333,15.9466341 5.33646853,15.8940005 5.34256477,15.8422733 C5.34562832,15.8169633 5.34942155,15.7912713 5.35396526,15.7656864 C5.35743887,15.7454945 5.36141055,15.7257573 5.36581272,15.706183 C5.37051417,15.6857853 5.37567956,15.6651101 5.38134661,15.6445442 C5.40092885,15.5732096 5.4263339,15.5044119 5.45696186,15.438534 C5.46495022,15.4212139 5.47339637,15.4039956 5.4822361,15.3869284 C5.52225543,15.3099819 5.56933098,15.2375844 5.62274525,15.1704558 C5.62706455,15.164922 5.63142786,15.1595322 5.63583943,15.1541688 C5.65801764,15.1272651 5.68113876,15.101258 5.70523083,15.0761909 C5.71056777,15.0706201 5.71716975,15.0638788 5.72385763,15.057191 L15.057191,5.72385763 C15.57789,5.20315857 16.42211,5.20315857 16.942809,5.72385763 Z" id="path-1"></path>
    </defs>
    <g id="Page-1" stroke="none" stroke-width="1" fill="none" fill-rule="evenodd">
        <g id="Web-(Min1024px)---Loading-Weather-Widget" transform="translate(-93.000000, -3492.000000)">
            <g id="1.0-Home-Page---Testimonials" transform="translate(0.000000, 3320.000000)">
                <g id="arrow-left" transform="translate(85.000000, 164.000000)">
                    <g id="Group-8" transform="translate(8.000000, 8.000000)">
                        <g id="icon-/-arrow-left">
                            <mask id="mask-2" fill="white">
                                <use xlink:href="#path-1"></use>
                            </mask>
                            <use id="Mask" fill-opacity="0.6" fill="#191919" fill-rule="nonzero" xlink:href="#path-1"></use>
                        </g>
                    </g>
                </g>
            </g>
        </g>
    </g>
</svg>