<?xml version="1.0" encoding="UTF-8"?>
<svg width="32px" height="32px" viewBox="0 0 32 32" version="1.1" xmlns="http://www.w3.org/2000/svg" xmlns:xlink="http://www.w3.org/1999/xlink">
    <!-- Generator: Sketch 59.1 (86144) - https://sketch.com -->
    <title>icon - tag@1x</title>
    <desc>Created with Sketch.</desc>
    <defs>
        <path d="M29.4779874,14.4213836 L18.1194969,3.06289308 C17.8553459,2.79874214 17.591195,2.66666667 17.1949686,2.66666667 L3.98742138,2.66666667 C3.19496855,2.66666667 2.66666667,3.19496855 2.66666667,3.98742138 L2.66666667,17.1949686 C2.66666667,17.591195 2.79874214,17.8553459 3.06289308,18.1194969 L14.4213836,29.4779874 C15.2138365,30.2704403 16.1383648,30.6666667 17.1949686,30.6666667 C17.1949686,30.6666667 17.1949686,30.6666667 17.1949686,30.6666667 C18.2515723,30.6666667 19.3081761,30.2704403 19.9685535,29.4779874 L29.4779874,19.9685535 C29.4779874,19.9685535 29.4779874,19.9685535 29.4779874,19.9685535 C31.0628931,18.3836478 31.0628931,16.0062893 29.4779874,14.4213836 Z M27.6289308,18.1194969 L18.1194969,27.6289308 C17.591195,28.1572327 16.7987421,28.1572327 16.2704403,27.6289308 L5.3081761,16.6666667 L5.3081761,5.3081761 L16.6666667,5.3081761 L27.6289308,16.2704403 C28.1572327,16.7987421 28.1572327,17.591195 27.6289308,18.1194969 Z M11.5157233,9.66666667 C11.7798742,9.93081761 11.9119497,10.1949686 11.9119497,10.591195 C11.9119497,10.9874214 11.7798742,11.2515723 11.5157233,11.5157233 C11.2515723,11.7798742 10.9874214,11.9119497 10.591195,11.9119497 C10.1949686,11.9119497 9.93081761,11.7798742 9.66666667,11.5157233 C9.53459119,11.3836478 9.40251572,11.2515723 9.40251572,11.1194969 C9.27044025,10.9874214 9.27044025,10.7232704 9.27044025,10.591195 C9.27044025,10.1949686 9.40251572,9.93081761 9.66666667,9.66666667 C10.0628931,9.27044025 10.591195,9.13836478 11.1194969,9.40251572 C11.2515723,9.40251572 11.3836478,9.53459119 11.5157233,9.66666667 Z" id="path-1"></path>
    </defs>
    <g id="Page-1" stroke="none" stroke-width="1" fill="none" fill-rule="evenodd">
        <g id="Web-(Min1024px)---Loading-Weather-Widget" transform="translate(-497.000000, -4068.000000)">
            <g id="1.0-Home-Page---3-Features-with-short-desc." transform="translate(0.000000, 3820.000000)">
                <g id="feature-breakdown" transform="translate(85.000000, 208.000000)">
                    <g id="topics" transform="translate(380.000000, 0.000000)">
                        <g id="Group-4" transform="translate(32.000000, 40.000000)">
                            <g id="icon-/-tag">
                                <mask id="mask-2" fill="white">
                                    <use xlink:href="#path-1"></use>
                                </mask>
                                <use id="Mask" fill="#FF7E00" fill-rule="nonzero" xlink:href="#path-1"></use>
                            </g>
                        </g>
                    </g>
                </g>
            </g>
        </g>
    </g>
</svg>