<?xml version="1.0" encoding="UTF-8"?>
<svg width="24px" height="24px" viewBox="0 0 24 24" version="1.1" xmlns="http://www.w3.org/2000/svg" xmlns:xlink="http://www.w3.org/1999/xlink">
    <!-- Generator: Sketch 59.1 (86144) - https://sketch.com -->
    <title>icon-twitter copy@2x</title>
    <desc>Created with Sketch.</desc>
    <g id="Page-1" stroke="none" stroke-width="1" fill="none" fill-rule="evenodd">
        <g id="Web-(Min1024px)---Loading-Weather-Widget" transform="translate(-584.000000, -4901.000000)" fill="#6F6F6F">
            <g id="1.0-Home-Page---Footer" transform="translate(0.000000, 4792.000000)">
                <g id="Social-Icons" transform="translate(540.000000, 109.000000)">
                    <g id="icon-2" transform="translate(44.000000, 0.000000)">
                        <g id="Twitter_black">
                            <g id="Twitter">
                                <path d="M0,12 C0,5.37258268 5.37258268,0 12,0 C18.6274173,0 24,5.37258268 24,12 C24,18.6274173 18.6274173,24 12,24 C5.37258268,24 0,18.6274173 0,12 Z M11.6406013,9.75375032 L11.6657826,10.1689774 L11.246095,10.1181332 C9.71843212,9.92323076 8.38382556,9.26225704 7.25066904,8.15216016 L6.6966814,7.60134876 L6.55398764,8.0081018 C6.25181256,8.91482216 6.44486884,9.8723866 7.07440024,10.5164123 C7.41015032,10.8723212 7.33460656,10.9231653 6.75543768,10.7113148 C6.55398764,10.6435226 6.37771884,10.5926785 6.36093132,10.6181006 C6.30217508,10.6774187 6.50362512,11.4485547 6.6631064,11.7536195 C6.88134396,12.1773206 7.3262128,12.5925476 7.81305044,12.8382943 L8.22434428,13.0331968 L7.73750664,13.0416708 C7.26745656,13.0416708 7.25066904,13.0501448 7.30103156,13.2280993 C7.4689066,13.7789107 8.132013,14.3636182 8.87066316,14.6178389 L9.3910758,14.7957933 L8.9378132,15.066962 C8.26631304,15.456767 7.47730036,15.6770916 6.68828768,15.6940396 C6.31056884,15.7025137 6,15.7364098 6,15.7618318 C6,15.846572 7.02403772,16.3211173 7.61999412,16.5075458 C9.40786328,17.0583572 11.5314825,16.8210846 13.1262954,15.8804681 C14.2594519,15.2110204 15.3926084,13.880599 15.9214148,12.5925476 C16.2068024,11.9061519 16.49219,10.6519966 16.49219,10.0503411 C16.49219,9.66053608 16.5173712,9.60969196 16.9874213,9.14362072 C17.2644151,8.87245204 17.5246214,8.57586128 17.574984,8.49112104 C17.6589215,8.33011464 17.6505277,8.33011464 17.2224464,8.474173 C16.5089774,8.72839368 16.4082524,8.69449756 16.76079,8.3131666 C17.0209963,8.04199788 17.3315651,7.55050464 17.3315651,7.40644624 C17.3315651,7.3810242 17.2056588,7.42339428 17.0629651,7.49966048 C16.9118775,7.58440072 16.5761274,7.71151104 16.3243149,7.78777724 L15.8710523,7.9318356 L15.4597584,7.65219288 C15.2331272,7.49966048 14.9141646,7.33018004 14.7462895,7.27933592 C14.3182082,7.1606996 13.6634955,7.17764764 13.277383,7.313232 C12.228164,7.694563 11.5650576,8.67754952 11.6406013,9.75375032 Z" id="Combined-Shape" fill-rule="nonzero"></path>
                            </g>
                        </g>
                    </g>
                </g>
            </g>
        </g>
    </g>
</svg>