<?xml version="1.0" encoding="UTF-8"?>
<svg width="24px" height="24px" viewBox="0 0 24 24" version="1.1" xmlns="http://www.w3.org/2000/svg" xmlns:xlink="http://www.w3.org/1999/xlink">
    <!-- Generator: Sketch 59.1 (86144) - https://sketch.com -->
    <title>icon-instagram copy@2x</title>
    <desc>Created with Sketch.</desc>
    <g id="Page-1" stroke="none" stroke-width="1" fill="none" fill-rule="evenodd">
        <g id="Web-(Min1024px)---Loading-Weather-Widget" transform="translate(-672.000000, -4901.000000)">
            <g id="1.0-Home-Page---Footer" transform="translate(0.000000, 4792.000000)">
                <g id="Social-Icons" transform="translate(540.000000, 109.000000)">
                    <g id="Icon-4" transform="translate(132.000000, 0.000000)">
                        <g id="Instagram"></g>
                        <g id="Instagram_black" fill="#6F6F6F">
                            <g id="Instagram">
                                <path d="M0,12 C0,5.37258268 5.37258268,0 12,0 C18.6274173,0 24,5.37258268 24,12 C24,18.6274173 18.6274173,24 12,24 C5.37258268,24 0,18.6274173 0,12 Z M12.0006,5.6 C10.2624486,5.6 10.044313,5.60760008 9.3616392,5.63866708 C8.68029876,5.6698674 8.21522724,5.7777352 7.80828968,5.93600352 C7.38735196,6.09947188 7.03028156,6.3181408 6.67454452,6.6740112 C6.3185408,7.02974824 6.09987188,7.3868186 5.93587016,7.807623 C5.77720184,8.21469392 5.66920072,8.67989876 5.63853372,9.36097252 C5.60800008,10.0436463 5.6,10.2619152 5.6,12.0000667 C5.6,13.7382181 5.6077334,13.955687 5.63866708,14.6383608 C5.67000072,15.3197012 5.77786852,15.7847728 5.93600352,16.1917103 C6.0996052,16.612648 6.31827416,16.9697184 6.67414452,17.3254555 C7.02974824,17.6814592 7.3868186,17.9006615 7.80748968,18.0641298 C8.21469392,18.2223982 8.67989876,18.330266 9.36110584,18.3614663 C10.0437796,18.3925332 10.2617819,18.4001333 11.9998,18.4001333 C13.7380848,18.4001333 13.9555537,18.3925332 14.6382275,18.3614663 C15.3195679,18.330266 15.7851728,18.2223982 16.192377,18.0641298 C16.6131814,17.9006615 16.9697184,17.6814592 17.3253221,17.3254555 C17.6813258,16.9697184 17.8999948,16.612648 18.0639965,16.1918437 C18.2213315,15.7847728 18.3293326,15.3195679 18.3613329,14.6384942 C18.3919999,13.9558204 18.4,13.7382181 18.4,12.0000667 C18.4,10.2619152 18.3919999,10.0437796 18.3613329,9.36110584 C18.3293326,8.6797654 18.2213315,8.21469392 18.0639965,7.80775632 C17.8999948,7.3868186 17.6813258,7.02974824 17.3253221,6.6740112 C16.9693184,6.31800748 16.6133147,6.09933852 16.191977,5.93600352 C15.7839728,5.7777352 15.3186346,5.6698674 14.6372941,5.63866708 C13.9546204,5.60760008 13.7372848,5.6 11.9986,5.6 L12.0006,5.6 Z" id="Combined-Shape" fill-rule="nonzero"></path>
                                <path d="M11.4264607,6.75334536 C11.5968625,6.75307868 11.7869978,6.75334536 12.0006,6.75334536 C13.7094178,6.75334536 13.9119532,6.75947876 14.5867603,6.79014572 C15.2107668,6.81867936 15.549437,6.92294712 15.7750393,7.01054804 C16.0737091,7.12654924 16.2866446,7.26521736 16.5105136,7.48921968 C16.734516,7.713222 16.8731841,7.92655756 16.989452,8.22522736 C17.0770529,8.45056304 17.181454,8.78923324 17.2098543,9.41323972 C17.2405212,10.0879134 17.247188,10.2905822 17.247188,11.9986 C17.247188,13.7066178 17.2405212,13.9092866 17.2098543,14.5839602 C17.1813206,15.2079668 17.0770529,15.546637 16.989452,15.7719726 C16.8734508,16.0706424 16.734516,16.2833113 16.5105136,16.5071803 C16.2865113,16.7311826 16.0738424,16.8698507 15.7750393,16.9858519 C15.5497036,17.0738528 15.2107668,17.1778539 14.5867603,17.2063876 C13.9120866,17.2370546 13.7094178,17.2437213 12.0006,17.2437213 C10.2916489,17.2437213 10.0891134,17.2370546 9.41443972,17.2063876 C8.79043324,17.1775873 8.45176304,17.0733195 8.22602736,16.9857186 C7.92735756,16.8697174 7.71402204,16.7310493 7.49001968,16.507047 C7.26601736,16.2830446 7.12734924,16.0702424 7.01108136,15.7714393 C6.92348044,15.5461036 6.81907936,15.2074334 6.79067908,14.5834269 C6.76001208,13.9087532 6.75387868,13.7060844 6.75387868,11.997 C6.75387868,10.2879155 6.76001208,10.0863134 6.79067908,9.41163972 C6.81921272,8.7876332 6.92348044,8.448963 7.01108136,8.22336068 C7.12708256,7.92469088 7.26601736,7.71135532 7.49001968,7.487353 C7.71402204,7.26335064 7.92735756,7.12468256 8.22602736,7.00841468 C8.45162972,6.92041376 8.79043324,6.81641268 9.41443972,6.78774572 C10.0048459,6.76107876 10.2336483,6.75307868 11.4264607,6.75174532 L11.4264607,6.75334536 Z M15.4169022,7.81602308 C14.9928978,7.81602308 14.6488942,8.15962668 14.6488942,8.5837644 C14.6488942,9.00776884 14.9928978,9.3517724 15.4169022,9.3517724 C15.8409067,9.3517724 16.1849102,9.00776884 16.1849102,8.5837644 C16.1849102,8.15976 15.8409067,7.8157564 15.4169022,7.8157564 L15.4169022,7.81602308 Z M12.0006,8.71336576 C10.1855144,8.71336576 8.71389912,10.1849811 8.71389912,12.0000667 C8.71389912,13.8151522 10.1855144,15.2861009 12.0006,15.2861009 C13.8156856,15.2861009 15.2867676,13.8151522 15.2867676,12.0000667 C15.2867676,10.1849811 13.8155522,8.71336576 12.0004667,8.71336576 L12.0006,8.71336576 Z" id="Combined-Shape" fill-rule="nonzero"></path>
                                <path d="M12.0006,9.86671112 C13.1787456,9.86671112 14.1339556,10.8217877 14.1339556,12.0000667 C14.1339556,13.1782123 13.1787456,14.1334222 12.0006,14.1334222 C10.8223211,14.1334222 9.86724444,13.1782123 9.86724444,12.0000667 C9.86724444,10.8217877 10.8223211,9.86671112 12.0006,9.86671112 L12.0006,9.86671112 Z" id="Shape" fill-rule="nonzero"></path>
                            </g>
                        </g>
                    </g>
                </g>
            </g>
        </g>
    </g>
</svg>