<?xml version="1.0" encoding="UTF-8"?>
<svg width="24px" height="24px" viewBox="0 0 24 24" version="1.1" xmlns="http://www.w3.org/2000/svg" xmlns:xlink="http://www.w3.org/1999/xlink">
    <!-- Generator: Sketch 59.1 (86144) - https://sketch.com -->
    <title>icon-linkedin copy@2x</title>
    <desc>Created with Sketch.</desc>
    <g id="Page-1" stroke="none" stroke-width="1" fill="none" fill-rule="evenodd">
        <g id="Web-(Min1024px)---Loading-Weather-Widget" transform="translate(-716.000000, -4901.000000)">
            <g id="1.0-Home-Page---Footer" transform="translate(0.000000, 4792.000000)">
                <g id="Social-Icons" transform="translate(540.000000, 109.000000)">
                    <g id="Icon-4-Copy" transform="translate(176.000000, 0.000000)">
                        <g id="Instagram"></g>
                        <g id="LinkedIN_black" fill="#6F6F6F">
                            <g id="LinkedIN">
                                <path d="M0,12 C0,5.37258268 5.37258268,0 12,0 C18.6274173,0 24,5.37258268 24,12 C24,18.6274173 18.6274173,24 12,24 C5.37258268,24 0,18.6274173 0,12 Z M8.480271,9.93892416 L5.76080856,9.93892416 L5.76080856,18.1097799 L8.480271,18.1097799 L8.480271,9.93892416 Z M8.65938164,7.41134884 C8.64173124,6.61020164 8.06882696,6 7.138516,6 C6.20820504,6 5.6,6.61020164 5.6,7.41134884 C5.6,8.19590156 6.1902288,8.82367384 7.10321524,8.82367384 L7.12059408,8.82367384 C8.06882696,8.82367384 8.65938164,8.19590156 8.65938164,7.41134884 Z M18.2876928,13.4248609 C18.2876928,10.9151274 16.9461008,9.74705664 15.1565691,9.74705664 C13.7127135,9.74705664 13.066275,10.5401235 12.7053382,11.0964742 L12.7053382,9.93914108 L9.98554996,9.93914108 C10.0213938,10.7058519 9.98554996,18.1099968 9.98554996,18.1099968 L12.7053382,18.1099968 L12.7053382,13.5467168 C12.7053382,13.3025169 12.7229886,13.0589135 12.7948936,12.8840743 C12.9914374,12.3962167 13.4389425,11.8911138 14.1902514,11.8911138 C15.1747083,11.8911138 15.5682304,12.6403624 15.5682304,13.7383674 L15.5682304,18.1097799 L18.2875842,18.1097799 L18.2876928,13.4248609 Z" id="Combined-Shape" fill-rule="nonzero"></path>
                            </g>
                        </g>
                    </g>
                </g>
            </g>
        </g>
    </g>
</svg>