<?xml version="1.0" encoding="UTF-8"?>
<svg width="530px" height="680px" viewBox="0 0 530 680" version="1.1" xmlns="http://www.w3.org/2000/svg" xmlns:xlink="http://www.w3.org/1999/xlink">
    <!-- Generator: Sketch 59.1 (86144) - https://sketch.com -->
    <title>Shape Copy 2@1x</title>
    <desc>Created with Sketch.</desc>
    <g id="Page-1" stroke="none" stroke-width="1" fill="none" fill-rule="evenodd" fill-opacity="0.05">
        <g id="Web-(Min1024px)---Loading-Weather-Widget" transform="translate(0.000000, -1620.000000)" fill="#9B9B9B" fill-rule="nonzero">
            <g id="1.0-Home-Page---Hero-Feature---Inbox" transform="translate(0.000000, 1280.000000)">
                <path d="M491.883398,1020 L190,1020 C2.22318271,1020 -150,867.776669 -150,679.999906 C-150,492.223143 2.22318271,340 190,340 C377.776807,340 530,492.223143 530,679.999906 C530,680.254082 530,680.508192 530,680.762238 L530,981.883325 C530,1002.93453 512.934715,1020 491.883503,1020 L491.883398,1020 L491.883398,1020 Z M402,677.765568 L402,677.765568 C402,677.510486 402,677.255296 402,677 C402,561.572487 308.427513,468 193,468 C77.5724873,468 -16,561.572487 -16,677 C-16,792.427513 77.5724873,886 193,886 L379.032967,886 C391.717309,886 402,875.717309 402,863.032967 L402,677.765568 Z" id="Shape-Copy-2" transform="translate(190.000000, 680.000000) scale(-1, 1) translate(-190.000000, -680.000000) "></path>
            </g>
        </g>
    </g>
</svg>