<?xml version="1.0" encoding="UTF-8"?>
<svg width="370px" height="680px" viewBox="0 0 370 680" version="1.1" xmlns="http://www.w3.org/2000/svg" xmlns:xlink="http://www.w3.org/1999/xlink">
    <!-- Generator: Sketch 59.1 (86144) - https://sketch.com -->
    <title>Shape Copy 3@1x</title>
    <desc>Created with Sketch.</desc>
    <g id="Page-1" stroke="none" stroke-width="1" fill="none" fill-rule="evenodd" fill-opacity="0.1">
        <g id="Web-(Min1024px)---Loading-Weather-Widget" transform="translate(-910.000000, -937.000000)" fill="#FFB438" fill-rule="nonzero">
            <g id="1.0-Home-Page---Hero-Feature---Inbox" transform="translate(0.000000, 1280.000000)">
                <path d="M1551.8834,337 L1250,337 C1062.22318,337 910,184.776669 910,-3.00009398 C910,-190.776857 1062.22318,-343 1250,-343 C1437.77681,-343 1590,-190.776857 1590,-3.00009398 C1590,-2.74591819 1590,-2.49180755 1590,-2.23776234 L1590,298.883325 C1590,319.934531 1572.93471,337 1551.8835,337 L1551.8834,337 L1551.8834,337 Z M1462,-5.23443223 L1462,-5.23443223 C1462,-5.48951406 1462,-5.74470358 1462,-6 C1462,-121.427513 1368.42751,-215 1253,-215 C1137.57249,-215 1044,-121.427513 1044,-6 C1044,109.427513 1137.57249,203 1253,203 L1439.03297,203 C1451.71731,203 1462,192.717309 1462,180.032967 L1462,-5.23443223 Z" id="Shape-Copy-3" transform="translate(1250.000000, -3.000000) scale(-1, 1) translate(-1250.000000, 3.000000) "></path>
            </g>
        </g>
    </g>
</svg>